<svg width="918" height="663" xmlns="http://www.w3.org/2000/svg" xmlns:xlink="http://www.w3.org/1999/xlink" overflow="hidden"><defs><clipPath id="clip0"><rect x="6" y="29" width="918" height="663"/></clipPath></defs><g clip-path="url(#clip0)" transform="translate(-6 -29)"><path d="M35.5001 308.125C35.5001 312.336 59.0051 315.75 88.0001 315.75 116.995 315.75 140.5 312.336 140.5 308.125L140.5 353.875C140.5 358.086 116.995 361.5 88.0001 361.5 59.0051 361.5 35.5001 358.086 35.5001 353.875Z" fill="#FFFFFF" fill-rule="evenodd"/><path d="M35.5001 308.125C35.5001 303.914 59.0051 300.5 88.0001 300.5 116.995 300.5 140.5 303.914 140.5 308.125 140.5 312.336 116.995 315.75 88.0001 315.75 59.0051 315.75 35.5001 312.336 35.5001 308.125Z" fill="#FFFFFF" fill-rule="evenodd"/><path d="M140.5 308.125C140.5 312.336 116.995 315.75 88.0001 315.75 59.0051 315.75 35.5001 312.336 35.5001 308.125 35.5001 303.914 59.0051 300.5 88.0001 300.5 116.995 300.5 140.5 303.914 140.5 308.125L140.5 353.875C140.5 358.086 116.995 361.5 88.0001 361.5 59.0051 361.5 35.5001 358.086 35.5001 353.875L35.5001 308.125" stroke="#000000" stroke-width="1.33333" stroke-miterlimit="8" fill="none" fill-rule="evenodd"/><text font-family="DengXian,DengXian_MSFontService,Arial" font-weight="400" font-size="15" transform="translate(49.6824 331)">Wikipedia<tspan font-size="15" x="61.8333" y="0">数</tspan><tspan font-size="15" x="23.58" y="17">据集</tspan></text><path d="M211.5 307.167C211.5 300.724 216.723 295.5 223.167 295.5L314.833 295.5C321.277 295.5 326.5 300.724 326.5 307.167L326.5 353.833C326.5 360.277 321.277 365.5 314.833 365.5L223.167 365.5C216.723 365.5 211.5 360.277 211.5 353.833Z" stroke="#000000" stroke-width="1.33333" stroke-miterlimit="8" fill="#FFFFFF" fill-rule="evenodd"/><text font-family="DengXian,DengXian_MSFontService,Arial" font-weight="400" font-size="15" transform="translate(224.397 326)">抽取软件开发<tspan font-size="15" x="0" y="17">领域知识条目</tspan></text><path d="M35.5001 154.125C35.5001 158.336 59.0051 161.75 88.0001 161.75 116.995 161.75 140.5 158.336 140.5 154.125L140.5 199.875C140.5 204.086 116.995 207.5 88.0001 207.5 59.0051 207.5 35.5001 204.086 35.5001 199.875Z" fill="#FFFFFF" fill-rule="evenodd"/><path d="M35.5001 154.125C35.5001 149.914 59.0051 146.5 88.0001 146.5 116.995 146.5 140.5 149.914 140.5 154.125 140.5 158.336 116.995 161.75 88.0001 161.75 59.0051 161.75 35.5001 158.336 35.5001 154.125Z" fill="#FFFFFF" fill-rule="evenodd"/><path d="M140.5 154.125C140.5 158.336 116.995 161.75 88.0001 161.75 59.0051 161.75 35.5001 158.336 35.5001 154.125 35.5001 149.914 59.0051 146.5 88.0001 146.5 116.995 146.5 140.5 149.914 140.5 154.125L140.5 199.875C140.5 204.086 116.995 207.5 88.0001 207.5 59.0051 207.5 35.5001 204.086 35.5001 199.875L35.5001 154.125" stroke="#000000" stroke-width="1.33333" stroke-miterlimit="8" fill="none" fill-rule="evenodd"/><text font-family="DengXian,DengXian_MSFontService,Arial" font-weight="400" font-size="15" transform="translate(51.0157 177)">GitHub<tspan font-size="15" x="44.5" y="0">仓库</tspan><tspan font-size="15" x="14.9133" y="17">数据集</tspan></text><path d="M211.5 153.334C211.5 146.798 216.798 141.5 223.334 141.5L314.667 141.5C321.202 141.5 326.5 146.798 326.5 153.334L326.5 200.667C326.5 207.202 321.202 212.5 314.667 212.5L223.334 212.5C216.798 212.5 211.5 207.202 211.5 200.667Z" stroke="#000000" stroke-width="1.33333" stroke-miterlimit="8" fill="#FFFFFF" fill-rule="evenodd"/><text font-family="DengXian,DengXian_MSFontService,Arial" font-weight="400" font-size="15" transform="translate(224.093 182)">获取仓库数据</text><path d="M437.5 153.334C437.5 146.798 442.798 141.5 449.334 141.5L540.667 141.5C547.202 141.5 552.5 146.798 552.5 153.334L552.5 200.667C552.5 207.202 547.202 212.5 540.667 212.5L449.334 212.5C442.798 212.5 437.5 207.202 437.5 200.667Z" stroke="#000000" stroke-width="1.33333" stroke-miterlimit="8" fill="#FFFFFF" fill-rule="evenodd"/><text font-family="DengXian,DengXian_MSFontService,Arial" font-weight="400" font-size="15" transform="translate(454.859 173)">GitHub topic<tspan font-size="15" x="10.5867" y="17">层次聚类</tspan></text><path d="M607.5 153.5C607.5 146.873 612.873 141.5 619.5 141.5L715.5 141.5C722.127 141.5 727.5 146.873 727.5 153.5L727.5 201.5C727.5 208.127 722.127 213.5 715.5 213.5L619.5 213.5C612.873 213.5 607.5 208.127 607.5 201.5Z" stroke="#000000" stroke-width="1.33333" stroke-miterlimit="8" fill="#FFFFFF" fill-rule="evenodd"/><text font-family="DengXian,DengXian_MSFontService,Arial" font-weight="400" font-size="15" transform="translate(630.246 173)">GitHub仓库<tspan font-size="15" x="-8.08667" y="17">topic</tspan><tspan font-size="15" x="23.2466" y="17">类别预测</tspan></text><path d="M210.5 562.834C210.5 555.47 216.47 549.5 223.834 549.5L313.167 549.5C320.53 549.5 326.5 555.47 326.5 562.834L326.5 616.167C326.5 623.53 320.53 629.5 313.167 629.5L223.834 629.5C216.47 629.5 210.5 623.53 210.5 616.167Z" stroke="#000000" stroke-width="1.33333" stroke-miterlimit="8" fill="#FFFFFF" fill-rule="evenodd"/><text font-family="DengXian,DengXian_MSFontService,Arial" font-weight="400" font-size="15" transform="translate(229.84 577)">Wikipedia<tspan font-size="15" x="61.8333" y="0">软</tspan><tspan font-size="15" x="-5.74667" y="17">件开发领域层</tspan><tspan font-size="15" x="-5.74667" y="35">级知识树构建</tspan></text><path d="M406.5 562.834C406.5 555.47 412.47 549.5 419.834 549.5L516.166 549.5C523.53 549.5 529.5 555.47 529.5 562.834L529.5 616.166C529.5 623.53 523.53 629.5 516.166 629.5L419.834 629.5C412.47 629.5 406.5 623.53 406.5 616.166Z" stroke="#000000" stroke-width="1.33333" stroke-miterlimit="8" fill="#FFFFFF" fill-rule="evenodd"/><text font-family="DengXian,DengXian_MSFontService,Arial" font-weight="400" font-size="15" transform="translate(422.201 577)">Wikipedia<tspan font-size="15" x="61.8333" y="0">知识</tspan><tspan font-size="15" x="1.33331" y="17">树与</tspan><tspan font-size="15" x="30.6667" y="17">GitHub</tspan>层<tspan font-size="15" x="8.91998" y="35">级结构连接</tspan></text><path d="M807.5 562.834C807.5 555.47 813.47 549.5 820.834 549.5L909.167 549.5C916.53 549.5 922.5 555.47 922.5 562.834L922.5 616.167C922.5 623.53 916.53 629.5 909.167 629.5L820.834 629.5C813.47 629.5 807.5 623.53 807.5 616.167Z" stroke="#000000" stroke-width="1.33333" stroke-miterlimit="8" fill="#FFFFFF" fill-rule="evenodd"/><text font-family="DengXian,DengXian_MSFontService,Arial" font-weight="400" font-size="15" transform="translate(827.87 585)">GitHub<tspan font-size="15" x="44.5001" y="0">层次</tspan><tspan font-size="15" x="0.246704" y="17">化</tspan><tspan font-size="15" x="14.9134" y="17">检索实现</tspan></text><path d="M557.5 537.501C557.5 523.141 569.141 511.5 583.501 511.5L725.5 511.5C739.859 511.5 751.5 523.141 751.5 537.501L751.5 641.5C751.5 655.859 739.859 667.5 725.5 667.5L583.501 667.5C569.141 667.5 557.5 655.859 557.5 641.5Z" stroke="#000000" stroke-width="1.33333" stroke-miterlimit="8" fill="#FFFFFF" fill-rule="evenodd"/><path d="M645.5 534C645.5 528.753 649.753 524.5 655 524.5 660.247 524.5 664.5 528.753 664.5 534 664.5 539.247 660.247 543.5 655 543.5 649.753 543.5 645.5 539.247 645.5 534Z" stroke="#000000" stroke-width="1.33333" stroke-miterlimit="8" fill="#FFFFFF" fill-rule="evenodd"/><path d="M611.5 568C611.5 562.753 615.529 558.5 620.5 558.5 625.471 558.5 629.5 562.753 629.5 568 629.5 573.247 625.471 577.5 620.5 577.5 615.529 577.5 611.5 573.247 611.5 568Z" stroke="#000000" stroke-width="1.33333" stroke-miterlimit="8" fill="#FFFFFF" fill-rule="evenodd"/><path d="M662.5 573C662.5 567.753 666.529 563.5 671.5 563.5 676.471 563.5 680.5 567.753 680.5 573 680.5 578.247 676.471 582.5 671.5 582.5 666.529 582.5 662.5 578.247 662.5 573Z" stroke="#000000" stroke-width="1.33333" stroke-miterlimit="8" fill="#FFFFFF" fill-rule="evenodd"/><path d="M585.5 616C585.5 610.753 589.529 606.5 594.5 606.5 599.471 606.5 603.5 610.753 603.5 616 603.5 621.247 599.471 625.5 594.5 625.5 589.529 625.5 585.5 621.247 585.5 616Z" stroke="#000000" stroke-width="1.33333" stroke-miterlimit="8" fill="#FFFFFF" fill-rule="evenodd"/><path d="M636.5 629C636.5 623.753 640.529 619.5 645.5 619.5 650.471 619.5 654.5 623.753 654.5 629 654.5 634.247 650.471 638.5 645.5 638.5 640.529 638.5 636.5 634.247 636.5 629Z" stroke="#000000" stroke-width="1.33333" stroke-miterlimit="8" fill="#FFFFFF" fill-rule="evenodd"/><path d="M693.5 623C693.5 617.753 697.753 613.5 703 613.5 708.247 613.5 712.5 617.753 712.5 623 712.5 628.247 708.247 632.5 703 632.5 697.753 632.5 693.5 628.247 693.5 623Z" stroke="#000000" stroke-width="1.33333" stroke-miterlimit="8" fill="#FFFFFF" fill-rule="evenodd"/><path d="M0 0 21.1174 20.3067" stroke="#000000" stroke-width="0.666667" stroke-miterlimit="8" fill="none" fill-rule="evenodd" transform="matrix(-1 0 0 1 648.617 541.5)"/><path d="M661.5 541.5 671.343 564.213" stroke="#000000" stroke-width="0.666667" stroke-miterlimit="8" fill="none" fill-rule="evenodd"/><path d="M0 0 12.8644 34.1657" stroke="#000000" stroke-width="0.666667" stroke-miterlimit="8" fill="none" fill-rule="evenodd" transform="matrix(-1 0 0 1 614.364 574.5)"/><path d="M627.5 574.5 639.238 621.659" stroke="#000000" stroke-width="0.666667" stroke-miterlimit="8" fill="none" fill-rule="evenodd"/><path d="M678.5 580.5 696.716 616.398" stroke="#000000" stroke-width="0.666667" stroke-miterlimit="8" fill="none" fill-rule="evenodd"/><path d="M711.5 573C711.5 567.753 715.753 563.5 721 563.5 726.247 563.5 730.5 567.753 730.5 573 730.5 578.247 726.247 582.5 721 582.5 715.753 582.5 711.5 578.247 711.5 573Z" stroke="#000000" stroke-width="1.33333" stroke-miterlimit="8" fill="#FFFFFF" fill-rule="evenodd"/><path d="M714.446 566.741 664.5 534.5" stroke="#000000" stroke-width="0.666667" stroke-miterlimit="8" fill="none" fill-rule="evenodd"/><text font-family="DengXian,DengXian_MSFontService,Arial" font-weight="400" font-size="15" transform="translate(578.602 652)">GitHub软件开发知识图谱</text><path d="M326.5 177.167 431.655 177.167 431.655 177.833 326.5 177.833ZM430.321 173.5 438.321 177.5 430.321 181.5Z"/><path d="M552.501 177.167 600.601 177.297 600.6 177.963 552.499 177.833ZM599.278 173.626 607.267 177.648 599.256 181.626Z"/><path d="M178.5 350.5 178.5 341.5 161.5 341.5 161.5 323.5 178.5 323.5 178.5 314.5 195.5 332.5Z" stroke="#000000" stroke-width="1.33333" stroke-miterlimit="8" fill="#FFFFFF" fill-rule="evenodd"/><path d="M178.5 189.5 178.5 180.5 161.5 180.5 161.5 162.5 178.5 162.5 178.5 153.5 195.5 171.5Z" stroke="#000000" stroke-width="1.33333" stroke-miterlimit="8" fill="#FFFFFF" fill-rule="evenodd"/><path d="M268.47 294.798 268.191 219.168 268.858 219.165 269.137 294.796ZM264.53 220.515 268.5 212.5 272.53 220.485Z"/><path d="M0.00182154-0.333328 73.4484 0.0680358 73.4447 0.734692-0.00182154 0.333328ZM72.1352-3.60586 80.1132 0.437795 72.0914 4.39402Z" transform="matrix(1 0 0 -1 326.5 589.938)"/><path d="M529.5 589.167 550.997 589.167 550.997 589.833 529.5 589.833ZM549.664 585.5 557.664 589.5 549.664 593.5Z"/><path d="M0.318352-0.0988083 25.6617 81.5553 25.025 81.7529-0.318352 0.0988083ZM28.7683 79.195 27.3195 88.0211 21.1278 81.5664Z" transform="matrix(-1 0 0 1 494.82 212.5)"/><path d="M0.17326-0.284767 154.716 93.743 154.369 94.3125-0.17326 0.284767ZM155.483 89.9177 160.238 97.4931 151.324 96.7521Z" transform="matrix(-1 0 0 1 667.738 213.5)"/><path d="M412.5 334C412.5 315.499 437.348 300.5 468 300.5 498.652 300.5 523.5 315.499 523.5 334 523.5 352.502 498.652 367.5 468 367.5 437.348 367.5 412.5 352.502 412.5 334Z" stroke="#000000" stroke-width="1.33333" stroke-miterlimit="8" fill="#FFFFFF" fill-rule="evenodd"/><text font-family="DengXian,DengXian_MSFontService,Arial" font-weight="400" font-size="15" transform="translate(437.873 330)">GitHub层<tspan font-size="15" x="7.58667" y="17">级结构</tspan></text><rect x="8.50005" y="30.5001" width="356" height="408" stroke="#000000" stroke-width="1.33333" stroke-miterlimit="8" stroke-dasharray="4 1.33333" fill="none"/><rect x="387.5" y="30.5001" width="384" height="408" stroke="#000000" stroke-width="1.33333" stroke-miterlimit="8" stroke-dasharray="4 1.33333" fill="none"/><rect x="8.50005" y="467.5" width="763" height="224" stroke="#000000" stroke-width="1.33333" stroke-miterlimit="8" stroke-dasharray="4 1.33333" fill="none"/><path d="M751.5 589.167 800.833 589.167 800.833 589.833 751.5 589.833ZM799.5 585.5 807.5 589.5 799.5 593.5Z"/><text font-family="DengXian,DengXian_MSFontService,Arial" font-weight="400" font-size="13" transform="translate(17.1131 48)">Wikipedia<tspan font-size="13" x="56.3333" y="0">与</tspan><tspan font-size="13" x="69.6667" y="0">GitHub</tspan><tspan font-size="13" x="110" y="0">仓库数据获取</tspan><tspan font-size="13" x="383.539" y="0">GitHub</tspan>层级结构抽取<tspan font-size="13" x="2.18404" y="442">GitHub</tspan><tspan font-size="13" x="42.5174" y="442">软件开发知识图谱构建</tspan></text><path d="M269.167 142.833 269.167 118.5 668.899 118.5 668.899 134.833 668.232 134.833 668.232 118.833 668.566 119.167 269.5 119.167 269.833 118.833 269.833 142.833ZM672.566 133.5 668.566 141.5 664.566 133.5Z"/><path d="M467.833 367.499 468.149 542.86 467.482 542.861 467.167 367.501ZM471.813 541.521 467.828 549.528 463.813 541.535Z"/><path d="M0.333333-0.000549444 0.625756 177.405-0.0409095 177.406-0.333333 0.000549444ZM4.29022 176.065 0.303412 184.072-3.70977 176.078Z" transform="matrix(-1 0 0 1 268.803 365.5)"/></g></svg>